<?xml version="1.0" standalone="no"?>
<!DOCTYPE svg PUBLIC "-//W3C//DTD SVG 20010904//EN"
 "http://www.w3.org/TR/2001/REC-SVG-20010904/DTD/svg10.dtd">
<svg version="1.0" xmlns="http://www.w3.org/2000/svg"
 width="12152.000000pt" height="10948.000000pt" viewBox="0 0 12152.000000 10948.000000"
 preserveAspectRatio="xMidYMid meet">

<g transform="translate(0.000000,10948.000000) scale(0.100000,-0.100000)"
fill="#000000" stroke="none">
<path d="M15853 98293 l-15853 -11185 0 -13600 0 -13599 8366 -19452 c4601
-10699 8371 -19457 8377 -19463 7 -6 9913 -4732 22015 -10503 l22002 -10491
22003 10491 c12101 5771 22007 10497 22014 10503 6 6 3776 8764 8377 19463
l8366 19452 0 13599 0 13600 -15855 11186 -15855 11186 -29052 -1 -29053 0
-15852 -11186z m88397 -1630 l15120 -10668 0 -12823 0 -12824 -8121 -18882
-8121 -18882 -21184 -10102 -21184 -10102 -21184 10102 -21184 10102 -8121
18882 -8121 18882 0 12824 0 12823 15118 10667 15117 10667 28373 0 28373 1
15119 -10667z"/>
<path d="M17977 95847 l-14757 -10412 0 -12428 0 -12428 7996 -18592 c4398
-10226 8001 -18597 8007 -18604 7 -6 9355 -4467 20775 -9912 l20762 -9901
20763 9901 c11419 5445 20767 9906 20774 9912 6 7 3609 8378 8007 18604 l7996
18592 0 12428 0 12428 -14757 10412 -14758 10413 -28025 0 -28025 0 -14758
-10413z m65228 8533 c964 -70 1686 -245 2316 -561 1215 -608 2006 -1740 2374
-3394 153 -690 229 -1417 250 -2415 8 -388 -13 -1142 -46 -1615 -5 -82 -110
-1927 -233 -4098 -123 -2171 -225 -3949 -227 -3950 -4 -3 -12383 -2365 -12386
-2363 0 1 116 2058 259 4571 l261 4570 1 585 c1 509 -1 604 -17 730 -79 629
-300 948 -718 1034 -281 58 -748 34 -1314 -67 -453 -81 -6571 -1251 -6579
-1258 -7 -6 -673 -11638 -676 -11824 -1 -27 -4 -43 -8 -35 -6 13 -897 -154
-6190 -1164 -3400 -648 -6185 -1176 -6188 -1173 -4 3 147 2723 335 6044 188
3321 347 6151 353 6288 16 343 16 1548 0 1835 -68 1197 -230 1957 -629 2954
-35 88 -61 161 -58 164 5 5 24877 4752 25395 4847 926 169 1729 266 2540 305
225 11 990 5 1185 -10z m-32021 -5722 c13 -80 578 -6319 573 -6324 -3 -4 -120
8 -259 25 -474 58 -882 95 -1388 128 -348 22 -1295 25 -1550 5 -662 -53 -1387
-152 -2165 -297 -819 -152 -10272 -1959 -10277 -1964 -7 -7 -434 -7959 -427
-7965 4 -4 8510 1615 9104 1733 988 196 1874 428 2530 661 740 263 1584 640
2485 1110 163 85 260 130 291 134 l45 7 -3 -33 c-1 -18 -62 -1090 -134 -2383
-73 -1292 -133 -2351 -133 -2351 -3 -4 -26818 -5115 -26821 -5112 -2 1 147
2656 330 5898 377 6663 352 6203 365 6575 14 365 14 1286 0 1585 -54 1207
-217 2012 -607 3000 -46 118 -85 219 -86 224 -1 6 27923 5344 28115 5375 4 0
10 -14 12 -31z m36453 -10415 c-3 -10 -5 -4 -5 12 0 17 2 24 5 18 2 -7 2 -21
0 -30z m-10 -180 c-3 -10 -5 -4 -5 12 0 17 2 24 5 18 2 -7 2 -21 0 -30z m-10
-175 c-3 -7 -5 -2 -5 12 0 14 2 19 5 13 2 -7 2 -19 0 -25z m-10 -180 c-3 -7
-5 -2 -5 12 0 14 2 19 5 13 2 -7 2 -19 0 -25z m-10 -175 c-3 -10 -5 -4 -5 12
0 17 2 24 5 18 2 -7 2 -21 0 -30z m-10 -175 c-3 -7 -5 -2 -5 12 0 14 2 19 5
13 2 -7 2 -19 0 -25z m-10 -180 c-3 -7 -5 -2 -5 12 0 14 2 19 5 13 2 -7 2 -19
0 -25z m-10 -175 c-3 -10 -5 -4 -5 12 0 17 2 24 5 18 2 -7 2 -21 0 -30z m-10
-175 c-3 -7 -5 -2 -5 12 0 14 2 19 5 13 2 -7 2 -19 0 -25z m-10 -180 c-3 -7
-5 -2 -5 12 0 14 2 19 5 13 2 -7 2 -19 0 -25z m-10 -175 c-3 -10 -5 -4 -5 12
0 17 2 24 5 18 2 -7 2 -21 0 -30z m-10 -175 c-3 -7 -5 -2 -5 12 0 14 2 19 5
13 2 -7 2 -19 0 -25z m-10 -180 c-3 -7 -5 -2 -5 12 0 14 2 19 5 13 2 -7 2 -19
0 -25z m-10 -175 c-3 -10 -5 -4 -5 12 0 17 2 24 5 18 2 -7 2 -21 0 -30z
m-12260 -130 c-3 -10 -5 -4 -5 12 0 17 2 24 5 18 2 -7 2 -21 0 -30z m12250
-45 c-3 -7 -5 -2 -5 12 0 14 2 19 5 13 2 -7 2 -19 0 -25z m-12260 -130 c-3 -7
-5 -2 -5 12 0 14 2 19 5 13 2 -7 2 -19 0 -25z m12250 -50 c-3 -7 -5 -2 -5 12
0 14 2 19 5 13 2 -7 2 -19 0 -25z m-12260 -130 c-3 -7 -5 -2 -5 12 0 14 2 19
5 13 2 -7 2 -19 0 -25z m12250 -45 c-3 -10 -5 -4 -5 12 0 17 2 24 5 18 2 -7 2
-21 0 -30z m-12260 -130 c-3 -10 -5 -4 -5 12 0 17 2 24 5 18 2 -7 2 -21 0 -30z
m12250 -50 c-3 -10 -5 -4 -5 12 0 17 2 24 5 18 2 -7 2 -21 0 -30z m-12260
-125 c-3 -7 -5 -2 -5 12 0 14 2 19 5 13 2 -7 2 -19 0 -25z m12250 -50 c-3 -7
-5 -2 -5 12 0 14 2 19 5 13 2 -7 2 -19 0 -25z m-12260 -130 c-3 -7 -5 -2 -5
12 0 14 2 19 5 13 2 -7 2 -19 0 -25z m12250 -45 c-3 -10 -5 -4 -5 12 0 17 2
24 5 18 2 -7 2 -21 0 -30z m-12260 -130 c-3 -10 -5 -4 -5 12 0 17 2 24 5 18 2
-7 2 -21 0 -30z m12250 -50 c-3 -10 -5 -4 -5 12 0 17 2 24 5 18 2 -7 2 -21 0
-30z m-12260 -125 c-3 -7 -5 -2 -5 12 0 14 2 19 5 13 2 -7 2 -19 0 -25z
m12250 -50 c-3 -7 -5 -2 -5 12 0 14 2 19 5 13 2 -7 2 -19 0 -25z m-12260 -130
c-3 -7 -5 -2 -5 12 0 14 2 19 5 13 2 -7 2 -19 0 -25z m12250 -50 c-3 -7 -5 -2
-5 12 0 14 2 19 5 13 2 -7 2 -19 0 -25z m-12260 -125 c-3 -10 -5 -4 -5 12 0
17 2 24 5 18 2 -7 2 -21 0 -30z m12250 -50 c-3 -10 -5 -4 -5 12 0 17 2 24 5
18 2 -7 2 -21 0 -30z m-20950 -60 c-3 -10 -5 -4 -5 12 0 17 2 24 5 18 2 -7 2
-21 0 -30z m8690 -65 c-3 -7 -5 -2 -5 12 0 14 2 19 5 13 2 -7 2 -19 0 -25z
m12250 -50 c-3 -7 -5 -2 -5 12 0 14 2 19 5 13 2 -7 2 -19 0 -25z m-20950 -60
c-3 -7 -5 -2 -5 12 0 14 2 19 5 13 2 -7 2 -19 0 -25z m8690 -70 c-3 -7 -5 -2
-5 12 0 14 2 19 5 13 2 -7 2 -19 0 -25z m12250 -50 c-3 -7 -5 -2 -5 12 0 14 2
19 5 13 2 -7 2 -19 0 -25z m-20950 -60 c-3 -7 -5 -2 -5 12 0 14 2 19 5 13 2
-7 2 -19 0 -25z m8690 -65 c-3 -10 -5 -4 -5 12 0 17 2 24 5 18 2 -7 2 -21 0
-30z m12250 -50 c-3 -10 -5 -4 -5 12 0 17 2 24 5 18 2 -7 2 -21 0 -30z
m-20950 -60 c-3 -10 -5 -4 -5 12 0 17 2 24 5 18 2 -7 2 -21 0 -30z m8690 -65
c-3 -7 -5 -2 -5 12 0 14 2 19 5 13 2 -7 2 -19 0 -25z m12250 -50 c-3 -7 -5 -2
-5 12 0 14 2 19 5 13 2 -7 2 -19 0 -25z m-20950 -60 c-3 -7 -5 -2 -5 12 0 14
2 19 5 13 2 -7 2 -19 0 -25z m8690 -70 c-3 -7 -5 -2 -5 12 0 14 2 19 5 13 2
-7 2 -19 0 -25z m12250 -50 c-3 -7 -5 -2 -5 12 0 14 2 19 5 13 2 -7 2 -19 0
-25z m-20950 -60 c-3 -7 -5 -2 -5 12 0 14 2 19 5 13 2 -7 2 -19 0 -25z m8690
-65 c-3 -10 -5 -4 -5 12 0 17 2 24 5 18 2 -7 2 -21 0 -30z m12250 -50 c-3 -10
-5 -4 -5 12 0 17 2 24 5 18 2 -7 2 -21 0 -30z m-20950 -60 c-3 -10 -5 -4 -5
12 0 17 2 24 5 18 2 -7 2 -21 0 -30z m8690 -65 c-3 -7 -5 -2 -5 12 0 14 2 19
5 13 2 -7 2 -19 0 -25z m12250 -50 c-3 -7 -5 -2 -5 12 0 14 2 19 5 13 2 -7 2
-19 0 -25z m-20950 -60 c-3 -7 -5 -2 -5 12 0 14 2 19 5 13 2 -7 2 -19 0 -25z
m8690 -70 c-3 -7 -5 -2 -5 12 0 14 2 19 5 13 2 -7 2 -19 0 -25z m12250 -50
c-3 -7 -5 -2 -5 12 0 14 2 19 5 13 2 -7 2 -19 0 -25z m-20950 -60 c-3 -7 -5
-2 -5 12 0 14 2 19 5 13 2 -7 2 -19 0 -25z m8690 -65 c-3 -10 -5 -4 -5 12 0
17 2 24 5 18 2 -7 2 -21 0 -30z m12250 -50 c-3 -10 -5 -4 -5 12 0 17 2 24 5
18 2 -7 2 -21 0 -30z m-20950 -60 c-3 -10 -5 -4 -5 12 0 17 2 24 5 18 2 -7 2
-21 0 -30z m8690 -65 c-3 -7 -5 -2 -5 12 0 14 2 19 5 13 2 -7 2 -19 0 -25z
m12250 -50 c-3 -7 -5 -2 -5 12 0 14 2 19 5 13 2 -7 2 -19 0 -25z m-20950 -60
c-3 -7 -5 -2 -5 12 0 14 2 19 5 13 2 -7 2 -19 0 -25z m8690 -70 c-3 -7 -5 -2
-5 12 0 14 2 19 5 13 2 -7 2 -19 0 -25z m12250 -50 c-3 -7 -5 -2 -5 12 0 14 2
19 5 13 2 -7 2 -19 0 -25z m-20950 -60 c-3 -7 -5 -2 -5 12 0 14 2 19 5 13 2
-7 2 -19 0 -25z m8690 -65 c-3 -10 -5 -4 -5 12 0 17 2 24 5 18 2 -7 2 -21 0
-30z m12250 -50 c-3 -10 -5 -4 -5 12 0 17 2 24 5 18 2 -7 2 -21 0 -30z
m-20950 -60 c-3 -10 -5 -4 -5 12 0 17 2 24 5 18 2 -7 2 -21 0 -30z m8690 -65
c-3 -7 -5 -2 -5 12 0 14 2 19 5 13 2 -7 2 -19 0 -25z m12250 -50 c-3 -7 -5 -2
-5 12 0 14 2 19 5 13 2 -7 2 -19 0 -25z m-33200 -15 c-3 -10 -5 -4 -5 12 0 17
2 24 5 18 2 -7 2 -21 0 -30z m12250 -45 c-3 -7 -5 -2 -5 12 0 14 2 19 5 13 2
-7 2 -19 0 -25z m8690 -70 c-3 -7 -5 -2 -5 12 0 14 2 19 5 13 2 -7 2 -19 0
-25z m12250 -50 c-3 -7 -5 -2 -5 12 0 14 2 19 5 13 2 -7 2 -19 0 -25z m-33200
-10 c-3 -7 -5 -2 -5 12 0 14 2 19 5 13 2 -7 2 -19 0 -25z m12250 -50 c-3 -7
-5 -2 -5 12 0 14 2 19 5 13 2 -7 2 -19 0 -25z m8690 -65 c-3 -10 -5 -4 -5 12
0 17 2 24 5 18 2 -7 2 -21 0 -30z m12250 -50 c-3 -10 -5 -4 -5 12 0 17 2 24 5
18 2 -7 2 -21 0 -30z m-33200 -15 c-3 -7 -5 -2 -5 12 0 14 2 19 5 13 2 -7 2
-19 0 -25z m12250 -45 c-3 -10 -5 -4 -5 12 0 17 2 24 5 18 2 -7 2 -21 0 -30z
m8690 -65 c-3 -7 -5 -2 -5 12 0 14 2 19 5 13 2 -7 2 -19 0 -25z m-20950 -65
c-3 -10 -5 -4 -5 12 0 17 2 24 5 18 2 -7 2 -21 0 -30z m33200 5 c-3 -7 -5 -2
-5 12 0 14 2 19 5 13 2 -7 2 -19 0 -25z m-20950 -50 c-3 -7 -5 -2 -5 12 0 14
2 19 5 13 2 -7 2 -19 0 -25z m8690 -70 c-3 -7 -5 -2 -5 12 0 14 2 19 5 13 2
-7 2 -19 0 -25z m-20950 -60 c-3 -7 -5 -2 -5 12 0 14 2 19 5 13 2 -7 2 -19 0
-25z m33200 0 c-3 -7 -5 -2 -5 12 0 14 2 19 5 13 2 -7 2 -19 0 -25z m-20950
-50 c-3 -7 -5 -2 -5 12 0 14 2 19 5 13 2 -7 2 -19 0 -25z m8690 -65 c-3 -10
-5 -4 -5 12 0 17 2 24 5 18 2 -7 2 -21 0 -30z m12250 -35 c-3 -7 -5 -2 -5 12
0 14 2 19 5 13 2 -7 2 -19 0 -25z m-37360 -30 c-3 -7 -5 -2 -5 12 0 14 2 19 5
13 2 -7 2 -19 0 -25z m4160 0 c-3 -7 -5 -2 -5 12 0 14 2 19 5 13 2 -7 2 -19 0
-25z m12250 -45 c-3 -10 -5 -4 -5 12 0 17 2 24 5 18 2 -7 2 -21 0 -30z m8690
-65 c-3 -7 -5 -2 -5 12 0 14 2 19 5 13 2 -7 2 -19 0 -25z m12250 0 c-3 -8 -6
-5 -6 6 -1 11 2 17 5 13 3 -3 4 -12 1 -19z m-33200 -65 c-3 -10 -5 -4 -5 12 0
17 2 24 5 18 2 -7 2 -21 0 -30z m-4160 -5 c-3 -7 -5 -2 -5 12 0 14 2 19 5 13
2 -7 2 -19 0 -25z m16410 -40 c-3 -7 -5 -2 -5 12 0 14 2 19 5 13 2 -7 2 -19 0
-25z m20940 -20 c-3 -8 -6 -5 -6 6 -1 11 2 17 5 13 3 -3 4 -12 1 -19z m-12250
-50 c-3 -7 -5 -2 -5 12 0 14 2 19 5 13 2 -7 2 -19 0 -25z m-25110 -65 c-3 -10
-5 -4 -5 12 0 17 2 24 5 18 2 -7 2 -21 0 -30z m4160 5 c-3 -7 -5 -2 -5 12 0
14 2 19 5 13 2 -7 2 -19 0 -25z m33190 -20 c-3 -8 -6 -5 -6 6 -1 11 2 17 5 13
3 -3 4 -12 1 -19z m-20940 -30 c-3 -7 -5 -2 -5 12 0 14 2 19 5 13 2 -7 2 -19
0 -25z m8690 -65 c-3 -10 -5 -4 -5 12 0 17 2 24 5 18 2 -7 2 -21 0 -30z
m12240 -15 c-3 -8 -6 -5 -6 6 -1 11 2 17 5 13 3 -3 4 -12 1 -19z m-37350 -50
c-3 -7 -5 -2 -5 12 0 14 2 19 5 13 2 -7 2 -19 0 -25z m4160 0 c-3 -7 -5 -2 -5
12 0 14 2 19 5 13 2 -7 2 -19 0 -25z m12250 -45 c-3 -10 -5 -4 -5 12 0 17 2
24 5 18 2 -7 2 -21 0 -30z m20930 -15 c-3 -8 -6 -5 -6 6 -1 11 2 17 5 13 3 -3
4 -12 1 -19z m-12240 -50 c-3 -7 -5 -2 -5 12 0 14 2 19 5 13 2 -7 2 -19 0 -25z
m-20950 -65 c-3 -10 -5 -4 -5 12 0 17 2 24 5 18 2 -7 2 -21 0 -30z m-4160 -5
c-3 -7 -5 -2 -5 12 0 14 2 19 5 13 2 -7 2 -19 0 -25z m16410 -40 c-3 -7 -5 -2
-5 12 0 14 2 19 5 13 2 -7 2 -19 0 -25z m8690 -70 c-3 -7 -5 -2 -5 12 0 14 2
19 5 13 2 -7 2 -19 0 -25z m-25110 -65 c-3 -10 -5 -4 -5 12 0 17 2 24 5 18 2
-7 2 -21 0 -30z m4160 5 c-3 -7 -5 -2 -5 12 0 14 2 19 5 13 2 -7 2 -19 0 -25z
m33170 -10 c-3 -8 -6 -5 -6 6 -1 11 2 17 5 13 3 -3 4 -12 1 -19z m-20920 -40
c-3 -7 -5 -2 -5 12 0 14 2 19 5 13 2 -7 2 -19 0 -25z m8690 -65 c-3 -10 -5 -4
-5 12 0 17 2 24 5 18 2 -7 2 -21 0 -30z m-25110 -65 c-3 -7 -5 -2 -5 12 0 14
2 19 5 13 2 -7 2 -19 0 -25z m4160 0 c-3 -7 -5 -2 -5 12 0 14 2 19 5 13 2 -7
2 -19 0 -25z m33160 -10 c-3 -8 -6 -5 -6 6 -1 11 2 17 5 13 3 -3 4 -12 1 -19z
m-20910 -35 c-3 -10 -5 -4 -5 12 0 17 2 24 5 18 2 -7 2 -21 0 -30z m8690 -65
c-3 -7 -5 -2 -5 12 0 14 2 19 5 13 2 -7 2 -19 0 -25z m-20950 -65 c-3 -10 -5
-4 -5 12 0 17 2 24 5 18 2 -7 2 -21 0 -30z m-4160 -5 c-3 -7 -5 -2 -5 12 0 14
2 19 5 13 2 -7 2 -19 0 -25z m16410 -45 c-3 -10 -5 -4 -5 12 0 17 2 24 5 18 2
-7 2 -21 0 -30z m8690 -65 c-3 -7 -5 -2 -5 12 0 14 2 19 5 13 2 -7 2 -19 0
-25z m-25110 -65 c-3 -10 -5 -4 -5 12 0 17 2 24 5 18 2 -7 2 -21 0 -30z m4160
0 c-3 -10 -5 -4 -5 12 0 17 2 24 5 18 2 -7 2 -21 0 -30z m12250 -45 c-3 -7 -5
-2 -5 12 0 14 2 19 5 13 2 -7 2 -19 0 -25z m8690 -65 c-3 -10 -5 -4 -5 12 0
17 2 24 5 18 2 -7 2 -21 0 -30z m-25110 -65 c-3 -7 -5 -2 -5 12 0 14 2 19 5
13 2 -7 2 -19 0 -25z m4160 0 c-3 -7 -5 -2 -5 12 0 14 2 19 5 13 2 -7 2 -19 0
-25z m12250 -45 c-3 -10 -5 -4 -5 12 0 17 2 24 5 18 2 -7 2 -21 0 -30z m8690
-65 c-3 -7 -5 -2 -5 12 0 14 2 19 5 13 2 -7 2 -19 0 -25z m-20950 -65 c-3 -10
-5 -4 -5 12 0 17 2 24 5 18 2 -7 2 -21 0 -30z m-4160 -5 c-3 -7 -5 -2 -5 12 0
14 2 19 5 13 2 -7 2 -19 0 -25z m16410 -45 c-3 -10 -5 -4 -5 12 0 17 2 24 5
18 2 -7 2 -21 0 -30z m8690 -65 c-3 -7 -5 -2 -5 12 0 14 2 19 5 13 2 -7 2 -19
0 -25z m-25110 -65 c-3 -10 -5 -4 -5 12 0 17 2 24 5 18 2 -7 2 -21 0 -30z
m4160 0 c-3 -10 -5 -4 -5 12 0 17 2 24 5 18 2 -7 2 -21 0 -30z m12250 -45 c-3
-7 -5 -2 -5 12 0 14 2 19 5 13 2 -7 2 -19 0 -25z m8690 -65 c-3 -10 -5 -4 -5
12 0 17 2 24 5 18 2 -7 2 -21 0 -30z m-25110 -65 c-3 -7 -5 -2 -5 12 0 14 2
19 5 13 2 -7 2 -19 0 -25z m4160 0 c-3 -7 -5 -2 -5 12 0 14 2 19 5 13 2 -7 2
-19 0 -25z m12250 -50 c-3 -7 -5 -2 -5 12 0 14 2 19 5 13 2 -7 2 -19 0 -25z
m8690 -60 c-3 -7 -5 -2 -5 12 0 14 2 19 5 13 2 -7 2 -19 0 -25z m-20950 -65
c-3 -10 -5 -4 -5 12 0 17 2 24 5 18 2 -7 2 -21 0 -30z m-4160 -5 c-3 -7 -5 -2
-5 12 0 14 2 19 5 13 2 -7 2 -19 0 -25z m-2464 -15 c-29 -2 -78 -2 -110 0 -32
2 -8 3 52 3 61 0 87 -1 58 -3z m300 0 c-40 -2 -106 -2 -145 0 -40 1 -8 3 72 3
80 0 112 -2 73 -3z m18574 -30 c-3 -10 -5 -4 -5 12 0 17 2 24 5 18 2 -7 2 -21
0 -30z m-19274 20 c-7 -2 -21 -2 -30 0 -10 3 -4 5 12 5 17 0 24 -2 18 -5z
m1095 0 c-10 -2 -26 -2 -35 0 -10 3 -2 5 17 5 19 0 27 -2 18 -5z m-1281 -9
c-3 -3 -12 -4 -19 -1 -8 3 -5 6 6 6 11 1 17 -2 13 -5z m1506 -1 c-7 -2 -21 -2
-30 0 -10 3 -4 5 12 5 17 0 24 -2 18 -5z m-1646 -9 c-3 -3 -12 -4 -19 -1 -8 3
-5 6 6 6 11 1 17 -2 13 -5z m1816 -1 c-7 -2 -19 -2 -25 0 -7 3 -2 5 12 5 14 0
19 -2 13 -5z m-1946 -9 c-3 -3 -12 -4 -19 -1 -8 3 -5 6 6 6 11 1 17 -2 13 -5z
m2100 0 c-3 -3 -12 -4 -19 -1 -8 3 -5 6 6 6 11 1 17 -2 13 -5z m-2210 -10 c-3
-3 -12 -4 -19 -1 -8 3 -5 6 6 6 11 1 17 -2 13 -5z m2340 0 c-3 -3 -12 -4 -19
-1 -8 3 -5 6 6 6 11 1 17 -2 13 -5z m130 -10 c-3 -3 -12 -4 -19 -1 -8 3 -5 6
6 6 11 1 17 -2 13 -5z m110 -10 c-3 -3 -12 -4 -19 -1 -8 3 -5 6 6 6 11 1 17
-2 13 -5z m25950 -26 c-3 -7 -5 -2 -5 12 0 14 2 19 5 13 2 -7 2 -19 0 -25z
m-25650 -4 c-3 -3 -12 -4 -19 -1 -8 3 -5 6 6 6 11 1 17 -2 13 -5z m90 -10 c-3
-3 -12 -4 -19 -1 -8 3 -5 6 6 6 11 1 17 -2 13 -5z m450 -51 c-3 -10 -5 -4 -5
12 0 17 2 24 5 18 2 -7 2 -21 0 -30z m4160 0 c-3 -10 -5 -4 -5 12 0 17 2 24 5
18 2 -7 2 -21 0 -30z m12250 -45 c-3 -7 -5 -2 -5 12 0 14 2 19 5 13 2 -7 2
-19 0 -25z m8690 -65 c-3 -10 -5 -4 -5 12 0 17 2 24 5 18 2 -7 2 -21 0 -30z
m-20950 -65 c-3 -7 -5 -2 -5 12 0 14 2 19 5 13 2 -7 2 -19 0 -25z m12250 -50
c-3 -7 -5 -2 -5 12 0 14 2 19 5 13 2 -7 2 -19 0 -25z m8690 -60 c-3 -7 -5 -2
-5 12 0 14 2 19 5 13 2 -7 2 -19 0 -25z m-20950 -65 c-3 -10 -5 -4 -5 12 0 17
2 24 5 18 2 -7 2 -21 0 -30z m12250 -50 c-3 -10 -5 -4 -5 12 0 17 2 24 5 18 2
-7 2 -21 0 -30z m8690 -65 c-3 -7 -5 -2 -5 12 0 14 2 19 5 13 2 -7 2 -19 0
-25z m-20950 -65 c-3 -10 -5 -4 -5 12 0 17 2 24 5 18 2 -7 2 -21 0 -30z
m12250 -45 c-3 -7 -5 -2 -5 12 0 14 2 19 5 13 2 -7 2 -19 0 -25z m8690 -60
c-3 -7 -5 -2 -5 12 0 14 2 19 5 13 2 -7 2 -19 0 -25z m-20950 -70 c-3 -7 -5
-2 -5 12 0 14 2 19 5 13 2 -7 2 -19 0 -25z m12250 -50 c-3 -7 -5 -2 -5 12 0
14 2 19 5 13 2 -7 2 -19 0 -25z m8690 -60 c-3 -7 -5 -2 -5 12 0 14 2 19 5 13
2 -7 2 -19 0 -25z m-20950 -65 c-3 -10 -5 -4 -5 12 0 17 2 24 5 18 2 -7 2 -21
0 -30z m12250 -50 c-3 -10 -5 -4 -5 12 0 17 2 24 5 18 2 -7 2 -21 0 -30z
m8690 -35 c-3 -8 -6 -5 -6 6 -1 11 2 17 5 13 3 -3 4 -12 1 -19z m-20950 -95
c-3 -10 -5 -4 -5 12 0 17 2 24 5 18 2 -7 2 -21 0 -30z m12250 -45 c-3 -7 -5
-2 -5 12 0 14 2 19 5 13 2 -7 2 -19 0 -25z m8690 0 c-3 -8 -6 -5 -6 6 -1 11 2
17 5 13 3 -3 4 -12 1 -19z m-10 -110 c-3 -8 -6 -5 -6 6 -1 11 2 17 5 13 3 -3
4 -12 1 -19z m-20940 -20 c-3 -7 -5 -2 -5 12 0 14 2 19 5 13 2 -7 2 -19 0 -25z
m12250 -50 c-3 -7 -5 -2 -5 12 0 14 2 19 5 13 2 -7 2 -19 0 -25z m-12260 -130
c-3 -7 -5 -2 -5 12 0 14 2 19 5 13 2 -7 2 -19 0 -25z m20930 0 c-3 -8 -6 -5
-6 6 -1 11 2 17 5 13 3 -3 4 -12 1 -19z m-8680 -45 c-3 -10 -5 -4 -5 12 0 17
2 24 5 18 2 -7 2 -21 0 -30z m-12260 -130 c-3 -10 -5 -4 -5 12 0 17 2 24 5 18
2 -7 2 -21 0 -30z m12250 -45 c-3 -7 -5 -2 -5 12 0 14 2 19 5 13 2 -7 2 -19 0
-25z m-12260 -130 c-3 -7 -5 -2 -5 12 0 14 2 19 5 13 2 -7 2 -19 0 -25z
m12250 -50 c-3 -7 -5 -2 -5 12 0 14 2 19 5 13 2 -7 2 -19 0 -25z m-12260 -130
c-3 -7 -5 -2 -5 12 0 14 2 19 5 13 2 -7 2 -19 0 -25z m-18440 -35 c-3 -10 -5
-4 -5 12 0 17 2 24 5 18 2 -7 2 -21 0 -30z m30690 -10 c-3 -10 -5 -4 -5 12 0
17 2 24 5 18 2 -7 2 -21 0 -30z m-12260 -130 c-3 -10 -5 -4 -5 12 0 17 2 24 5
18 2 -7 2 -21 0 -30z m-18440 -35 c-3 -7 -5 -2 -5 12 0 14 2 19 5 13 2 -7 2
-19 0 -25z m30690 -10 c-3 -7 -5 -2 -5 12 0 14 2 19 5 13 2 -7 2 -19 0 -25z
m-12260 -130 c-3 -7 -5 -2 -5 12 0 14 2 19 5 13 2 -7 2 -19 0 -25z m-18440
-40 c-3 -7 -5 -2 -5 12 0 14 2 19 5 13 2 -7 2 -19 0 -25z m30690 -10 c-3 -7
-5 -2 -5 12 0 14 2 19 5 13 2 -7 2 -19 0 -25z m-12260 -130 c-3 -7 -5 -2 -5
12 0 14 2 19 5 13 2 -7 2 -19 0 -25z m-18440 -35 c-3 -10 -5 -4 -5 12 0 17 2
24 5 18 2 -7 2 -21 0 -30z m30690 -10 c-3 -10 -5 -4 -5 12 0 17 2 24 5 18 2
-7 2 -21 0 -30z m-42950 -115 c-3 -7 -5 -2 -5 12 0 14 2 19 5 13 2 -7 2 -19 0
-25z m30690 -15 c-3 -10 -5 -4 -5 12 0 17 2 24 5 18 2 -7 2 -21 0 -30z
m-18440 -35 c-3 -7 -5 -2 -5 12 0 14 2 19 5 13 2 -7 2 -19 0 -25z m30690 -10
c-3 -7 -5 -2 -5 12 0 14 2 19 5 13 2 -7 2 -19 0 -25z m-42950 -120 c-3 -7 -5
-2 -5 12 0 14 2 19 5 13 2 -7 2 -19 0 -25z m30690 -10 c-3 -7 -5 -2 -5 12 0
14 2 19 5 13 2 -7 2 -19 0 -25z m-18440 -40 c-3 -7 -5 -2 -5 12 0 14 2 19 5
13 2 -7 2 -19 0 -25z m30690 -10 c-3 -7 -5 -2 -5 12 0 14 2 19 5 13 2 -7 2
-19 0 -25z m-42950 -115 c-3 -10 -5 -4 -5 12 0 17 2 24 5 18 2 -7 2 -21 0 -30z
m30690 -15 c-3 -7 -5 -2 -5 12 0 14 2 19 5 13 2 -7 2 -19 0 -25z m-18440 -35
c-3 -10 -5 -4 -5 12 0 17 2 24 5 18 2 -7 2 -21 0 -30z m30690 -10 c-3 -10 -5
-4 -5 12 0 17 2 24 5 18 2 -7 2 -21 0 -30z m-42950 -115 c-3 -7 -5 -2 -5 12 0
14 2 19 5 13 2 -7 2 -19 0 -25z m30690 -15 c-3 -10 -5 -4 -5 12 0 17 2 24 5
18 2 -7 2 -21 0 -30z m20413 3 c0 -2 -8 -10 -17 -17 -16 -13 -17 -12 -4 4 13
16 21 21 21 13z m-38853 -38 c-3 -7 -5 -2 -5 12 0 14 2 19 5 13 2 -7 2 -19 0
-25z m30690 -10 c-3 -7 -5 -2 -5 12 0 14 2 19 5 13 2 -7 2 -19 0 -25z m-42950
-120 c-3 -7 -5 -2 -5 12 0 14 2 19 5 13 2 -7 2 -19 0 -25z m30690 -10 c-3 -7
-5 -2 -5 12 0 14 2 19 5 13 2 -7 2 -19 0 -25z m-18440 -40 c-3 -7 -5 -2 -5 12
0 14 2 19 5 13 2 -7 2 -19 0 -25z m30690 -10 c-3 -7 -5 -2 -5 12 0 14 2 19 5
13 2 -7 2 -19 0 -25z m-42950 -115 c-3 -10 -5 -4 -5 12 0 17 2 24 5 18 2 -7 2
-21 0 -30z m30690 -15 c-3 -7 -5 -2 -5 12 0 14 2 19 5 13 2 -7 2 -19 0 -25z
m-18440 -35 c-3 -10 -5 -4 -5 12 0 17 2 24 5 18 2 -7 2 -21 0 -30z m30690 -10
c-3 -10 -5 -4 -5 12 0 17 2 24 5 18 2 -7 2 -21 0 -30z m-42950 -115 c-3 -7 -5
-2 -5 12 0 14 2 19 5 13 2 -7 2 -19 0 -25z m30690 -15 c-3 -10 -5 -4 -5 12 0
17 2 24 5 18 2 -7 2 -21 0 -30z m-18440 -35 c-3 -7 -5 -2 -5 12 0 14 2 19 5
13 2 -7 2 -19 0 -25z m30690 -10 c-3 -7 -5 -2 -5 12 0 14 2 19 5 13 2 -7 2
-19 0 -25z m-42950 -120 c-3 -7 -5 -2 -5 12 0 14 2 19 5 13 2 -7 2 -19 0 -25z
m30690 -10 c-3 -7 -5 -2 -5 12 0 14 2 19 5 13 2 -7 2 -19 0 -25z m-18440 -40
c-3 -7 -5 -2 -5 12 0 14 2 19 5 13 2 -7 2 -19 0 -25z m30690 -10 c-3 -7 -5 -2
-5 12 0 14 2 19 5 13 2 -7 2 -19 0 -25z m-42950 -115 c-3 -10 -5 -4 -5 12 0
17 2 24 5 18 2 -7 2 -21 0 -30z m30690 -15 c-3 -7 -5 -2 -5 12 0 14 2 19 5 13
2 -7 2 -19 0 -25z m-18440 -35 c-3 -10 -5 -4 -5 12 0 17 2 24 5 18 2 -7 2 -21
0 -30z m30690 -10 c-3 -10 -5 -4 -5 12 0 17 2 24 5 18 2 -7 2 -21 0 -30z
m-42950 -115 c-3 -7 -5 -2 -5 12 0 14 2 19 5 13 2 -7 2 -19 0 -25z m30690 -15
c-3 -10 -5 -4 -5 12 0 17 2 24 5 18 2 -7 2 -21 0 -30z m-18440 -35 c-3 -7 -5
-2 -5 12 0 14 2 19 5 13 2 -7 2 -19 0 -25z m30690 -10 c-3 -7 -5 -2 -5 12 0
14 2 19 5 13 2 -7 2 -19 0 -25z m-42950 -120 c-3 -7 -5 -2 -5 12 0 14 2 19 5
13 2 -7 2 -19 0 -25z m30690 -10 c-3 -7 -5 -2 -5 12 0 14 2 19 5 13 2 -7 2
-19 0 -25z m-18440 -40 c-3 -7 -5 -2 -5 12 0 14 2 19 5 13 2 -7 2 -19 0 -25z
m30690 -10 c-3 -7 -5 -2 -5 12 0 14 2 19 5 13 2 -7 2 -19 0 -25z m-42950 -115
c-3 -10 -5 -4 -5 12 0 17 2 24 5 18 2 -7 2 -21 0 -30z m30690 -15 c-3 -7 -5
-2 -5 12 0 14 2 19 5 13 2 -7 2 -19 0 -25z m-18440 -35 c-3 -10 -5 -4 -5 12 0
17 2 24 5 18 2 -7 2 -21 0 -30z m30690 -10 c-3 -10 -5 -4 -5 12 0 17 2 24 5
18 2 -7 2 -21 0 -30z m-42950 -115 c-3 -7 -5 -2 -5 12 0 14 2 19 5 13 2 -7 2
-19 0 -25z m30690 -15 c-3 -10 -5 -4 -5 12 0 17 2 24 5 18 2 -7 2 -21 0 -30z
m-18440 -35 c-3 -7 -5 -2 -5 12 0 14 2 19 5 13 2 -7 2 -19 0 -25z m30690 -15
c-3 -10 -5 -4 -5 12 0 17 2 24 5 18 2 -7 2 -21 0 -30z m-42950 -115 c-3 -7 -5
-2 -5 12 0 14 2 19 5 13 2 -7 2 -19 0 -25z m30690 -10 c-3 -7 -5 -2 -5 12 0
14 2 19 5 13 2 -7 2 -19 0 -25z m-18440 -40 c-3 -7 -5 -2 -5 12 0 14 2 19 5
13 2 -7 2 -19 0 -25z m30690 -10 c-3 -7 -5 -2 -5 12 0 14 2 19 5 13 2 -7 2
-19 0 -25z m18843 18 c0 -2 -8 -10 -17 -17 -16 -13 -17 -12 -4 4 13 16 21 21
21 13z m-61793 -133 c-3 -10 -5 -4 -5 12 0 17 2 24 5 18 2 -7 2 -21 0 -30z
m61703 34 c0 -2 -10 -12 -22 -23 l-23 -19 19 23 c18 21 26 27 26 19z m-31013
-49 c-3 -7 -5 -2 -5 12 0 14 2 19 5 13 2 -7 2 -19 0 -25z m-18440 -35 c-3 -10
-5 -4 -5 12 0 17 2 24 5 18 2 -7 2 -21 0 -30z m49313 -66 c0 -1 -46 -47 -102
-102 l-103 -100 100 103 c93 95 105 107 105 99z m-61573 -59 c-3 -7 -5 -2 -5
12 0 14 2 19 5 13 2 -7 2 -19 0 -25z m30690 -15 c-3 -10 -5 -4 -5 12 0 17 2
24 5 18 2 -7 2 -21 0 -30z m-18440 -35 c-3 -7 -5 -2 -5 12 0 14 2 19 5 13 2
-7 2 -19 0 -25z m-12260 -130 c-3 -7 -5 -2 -5 12 0 14 2 19 5 13 2 -7 2 -19 0
-25z m30690 -10 c-3 -7 -5 -2 -5 12 0 14 2 19 5 13 2 -7 2 -19 0 -25z m-18440
-40 c-3 -7 -5 -2 -5 12 0 14 2 19 5 13 2 -7 2 -19 0 -25z m49003 -31 c0 -2
-10 -12 -22 -23 l-23 -19 19 23 c18 21 26 27 26 19z m-61263 -94 c-3 -10 -5
-4 -5 12 0 17 2 24 5 18 2 -7 2 -21 0 -30z m30690 -15 c-3 -7 -5 -2 -5 12 0
14 2 19 5 13 2 -7 2 -19 0 -25z m-18440 -35 c-3 -10 -5 -4 -5 12 0 17 2 24 5
18 2 -7 2 -21 0 -30z m-12260 -125 c-3 -7 -5 -2 -5 12 0 14 2 19 5 13 2 -7 2
-19 0 -25z m30690 -15 c-3 -10 -5 -4 -5 12 0 17 2 24 5 18 2 -7 2 -21 0 -30z
m-18440 -35 c-3 -7 -5 -2 -5 12 0 14 2 19 5 13 2 -7 2 -19 0 -25z m-12260
-130 c-3 -7 -5 -2 -5 12 0 14 2 19 5 13 2 -7 2 -19 0 -25z m30690 -10 c-3 -7
-5 -2 -5 12 0 14 2 19 5 13 2 -7 2 -19 0 -25z m-18440 -40 c-3 -7 -5 -2 -5 12
0 14 2 19 5 13 2 -7 2 -19 0 -25z m-12260 -125 c-3 -10 -5 -4 -5 12 0 17 2 24
5 18 2 -7 2 -21 0 -30z m30690 -15 c-3 -7 -5 -2 -5 12 0 14 2 19 5 13 2 -7 2
-19 0 -25z m-18440 -35 c-3 -10 -5 -4 -5 12 0 17 2 24 5 18 2 -7 2 -21 0 -30z
m17249 -30 c-3 -21 -6 -50 -6 -65 0 -24 -5 -28 -57 -38 -264 -53 -462 -107
-648 -177 -990 -375 -1631 -1156 -1844 -2247 -17 -83 -38 -216 -48 -296 -32
-254 -22 -1032 13 -1125 4 -9 -111 -134 -313 -342 -1118 -1150 -2865 -3026
-4112 -4415 -62 -69 -123 -129 -135 -131 -11 -3 -116 -24 -232 -46 -115 -22
-236 -50 -268 -61 -32 -11 -56 -15 -54 -11 4 12 839 933 1437 1585 1081 1178
2066 2227 2868 3053 l284 292 -10 133 c-41 530 -3 1014 118 1503 271 1090
1023 1895 2096 2245 275 89 686 173 884 179 33 1 34 1 27 -36z m-29509 -100
c-3 -10 -5 -4 -5 12 0 17 2 24 5 18 2 -7 2 -21 0 -30z m30690 -10 c-3 -10 -5
-4 -5 12 0 17 2 24 5 18 2 -7 2 -21 0 -30z m-18440 -35 c-3 -7 -5 -2 -5 12 0
14 2 19 5 13 2 -7 2 -19 0 -25z m-12260 -130 c-3 -7 -5 -2 -5 12 0 14 2 19 5
13 2 -7 2 -19 0 -25z m30690 -10 c-3 -7 -5 -2 -5 12 0 14 2 19 5 13 2 -7 2
-19 0 -25z m-18440 -40 c-3 -7 -5 -2 -5 12 0 14 2 19 5 13 2 -7 2 -19 0 -25z
m-12260 -125 c-3 -10 -5 -4 -5 12 0 17 2 24 5 18 2 -7 2 -21 0 -30z m30690
-15 c-3 -7 -5 -2 -5 12 0 14 2 19 5 13 2 -7 2 -19 0 -25z m-18440 -35 c-3 -10
-5 -4 -5 12 0 17 2 24 5 18 2 -7 2 -21 0 -30z m-12260 -130 c-3 -10 -5 -4 -5
12 0 17 2 24 5 18 2 -7 2 -21 0 -30z m30690 -10 c-3 -10 -5 -4 -5 12 0 17 2
24 5 18 2 -7 2 -21 0 -30z m-18440 -35 c-3 -7 -5 -2 -5 12 0 14 2 19 5 13 2
-7 2 -19 0 -25z m-12260 -130 c-3 -7 -5 -2 -5 12 0 14 2 19 5 13 2 -7 2 -19 0
-25z m30690 -10 c-3 -7 -5 -2 -5 12 0 14 2 19 5 13 2 -7 2 -19 0 -25z m-18440
-40 c-3 -7 -5 -2 -5 12 0 14 2 19 5 13 2 -7 2 -19 0 -25z m-12260 -125 c-3
-10 -5 -4 -5 12 0 17 2 24 5 18 2 -7 2 -21 0 -30z m30690 -15 c-3 -7 -5 -2 -5
12 0 14 2 19 5 13 2 -7 2 -19 0 -25z m-18440 -35 c-3 -10 -5 -4 -5 12 0 17 2
24 5 18 2 -7 2 -21 0 -30z m-12260 -130 c-3 -10 -5 -4 -5 12 0 17 2 24 5 18 2
-7 2 -21 0 -30z m30690 -30 c-3 -10 -5 -4 -5 12 0 17 2 24 5 18 2 -7 2 -21 0
-30z m-18440 -15 c-3 -7 -5 -2 -5 12 0 14 2 19 5 13 2 -7 2 -19 0 -25z
m-12260 -130 c-3 -7 -5 -2 -5 12 0 14 2 19 5 13 2 -7 2 -19 0 -25z m12250 -50
c-3 -7 -5 -2 -5 12 0 14 2 19 5 13 2 -7 2 -19 0 -25z m18440 0 c-3 -7 -5 -2
-5 12 0 14 2 19 5 13 2 -7 2 -19 0 -25z m-30700 -125 c-3 -10 -5 -4 -5 12 0
17 2 24 5 18 2 -7 2 -21 0 -30z m12250 -50 c-3 -10 -5 -4 -5 12 0 17 2 24 5
18 2 -7 2 -21 0 -30z m18440 -5 c-3 -7 -5 -2 -5 12 0 14 2 19 5 13 2 -7 2 -19
0 -25z m-30700 -125 c-3 -10 -5 -4 -5 12 0 17 2 24 5 18 2 -7 2 -21 0 -30z
m30690 -35 c-3 -7 -5 -2 -5 12 0 14 2 19 5 13 2 -7 2 -19 0 -25z m-18440 -10
c-3 -7 -5 -2 -5 12 0 14 2 19 5 13 2 -7 2 -19 0 -25z m-12260 -130 c-3 -7 -5
-2 -5 12 0 14 2 19 5 13 2 -7 2 -19 0 -25z m30690 -10 c-3 -7 -5 -2 -5 12 0
14 2 19 5 13 2 -7 2 -19 0 -25z m-18440 -40 c-3 -7 -5 -2 -5 12 0 14 2 19 5
13 2 -7 2 -19 0 -25z m18430 -100 c-3 -7 -5 -2 -5 12 0 14 2 19 5 13 2 -7 2
-19 0 -25z m-30690 -25 c-3 -10 -5 -4 -5 12 0 17 2 24 5 18 2 -7 2 -21 0 -30z
m12250 -50 c-3 -10 -5 -4 -5 12 0 17 2 24 5 18 2 -7 2 -21 0 -30z m18430 -55
c-3 -8 -6 -5 -6 6 -1 11 2 17 5 13 3 -3 4 -12 1 -19z m-30690 -75 c-3 -10 -5
-4 -5 12 0 17 2 24 5 18 2 -7 2 -21 0 -30z m12250 -45 c-3 -7 -5 -2 -5 12 0
14 2 19 5 13 2 -7 2 -19 0 -25z m18430 0 c-3 -8 -6 -5 -6 6 -1 11 2 17 5 13 3
-3 4 -12 1 -19z m-30690 -130 c-3 -7 -5 -2 -5 12 0 14 2 19 5 13 2 -7 2 -19 0
-25z m30680 10 c-3 -8 -6 -5 -6 6 -1 11 2 17 5 13 3 -3 4 -12 1 -19z m-18430
-60 c-3 -7 -5 -2 -5 12 0 14 2 19 5 13 2 -7 2 -19 0 -25z m18420 -50 c-3 -8
-6 -5 -6 6 -1 11 2 17 5 13 3 -3 4 -12 1 -19z m31416 -20 c10 -47 71 -707 65
-713 -3 -3 -43 -1 -89 5 -115 14 -245 13 -375 -4 -123 -17 -1363 -252 -1372
-260 -6 -7 -57 -925 -51 -930 5 -5 1042 193 1179 225 130 29 242 70 389 140
68 33 126 58 127 56 4 -4 -45 -859 -50 -864 -2 -2 -65 1 -140 8 -218 18 -251
13 -1138 -157 l-408 -78 -4 -30 c-8 -53 -60 -1035 -55 -1040 5 -6 1260 232
1404 266 126 29 271 81 404 144 63 30 115 53 117 51 1 -1 -36 -179 -84 -395
-63 -286 -91 -393 -102 -397 -43 -13 -3341 -637 -3345 -633 -3 2 11 43 30 90
45 114 72 218 90 357 19 147 175 2900 175 3094 0 159 -16 273 -54 385 -18 53
-22 74 -13 77 21 7 3251 623 3273 624 15 1 23 -6 27 -21z m-62096 -60 c-3 -7
-5 -2 -5 12 0 14 2 19 5 13 2 -7 2 -19 0 -25z m12250 -45 c-3 -10 -5 -4 -5 12
0 17 2 24 5 18 2 -7 2 -21 0 -30z m18410 -85 c-3 -8 -6 -5 -6 6 -1 11 2 17 5
13 3 -3 4 -12 1 -19z m-30670 -45 c-3 -10 -5 -4 -5 12 0 17 2 24 5 18 2 -7 2
-21 0 -30z m12250 -45 c-3 -7 -5 -2 -5 12 0 14 2 19 5 13 2 -7 2 -19 0 -25z
m18400 -100 c-3 -8 -6 -5 -6 6 -1 11 2 17 5 13 3 -3 4 -12 1 -19z m-30660 -30
c-3 -7 -5 -2 -5 12 0 14 2 19 5 13 2 -7 2 -19 0 -25z m12250 -50 c-3 -7 -5 -2
-5 12 0 14 2 19 5 13 2 -7 2 -19 0 -25z m18400 -10 c-3 -8 -6 -5 -6 6 -1 11 2
17 5 13 3 -3 4 -12 1 -19z m-30660 -120 c-3 -7 -5 -2 -5 12 0 14 2 19 5 13 2
-7 2 -19 0 -25z m12250 -45 c-3 -10 -5 -4 -5 12 0 17 2 24 5 18 2 -7 2 -21 0
-30z m-12260 -130 c-3 -10 -5 -4 -5 12 0 17 2 24 5 18 2 -7 2 -21 0 -30z
m58113 13 c0 -27 60 -681 65 -710 5 -26 3 -28 -23 -22 -15 3 -79 11 -142 17
-98 11 -134 10 -245 -4 -142 -18 -1719 -317 -1800 -341 -104 -31 -180 -104
-206 -198 -9 -34 -129 -2149 -129 -2280 0 -126 44 -179 153 -186 48 -3 137 10
363 53 376 71 438 96 499 200 13 22 28 60 34 85 11 48 57 878 49 885 -3 3
-135 -20 -294 -50 -297 -57 -359 -77 -463 -146 l-34 -23 6 80 c4 43 14 207 23
364 9 157 19 288 23 292 3 4 539 108 1191 232 652 124 1195 228 1206 231 19 4
10 -18 -60 -158 -85 -166 -107 -238 -121 -382 -22 -236 -68 -1131 -69 -1345
-1 -287 3 -315 74 -447 33 -62 36 -73 22 -77 -60 -17 -1245 -237 -1256 -233
-9 4 -15 40 -20 129 -8 154 -17 222 -26 211 -4 -4 -17 -35 -29 -68 -77 -208
-175 -300 -387 -359 -49 -14 -408 -87 -799 -162 -628 -120 -726 -136 -846
-141 -226 -9 -369 35 -485 151 -137 137 -204 369 -204 706 0 193 95 1871 115
2025 55 427 202 723 453 912 156 118 339 192 600 244 137 27 2735 525 2755
528 4 0 7 -6 7 -13z m-45863 -58 c-3 -7 -5 -2 -5 12 0 14 2 19 5 13 2 -7 2
-19 0 -25z m-12260 -130 c-3 -7 -5 -2 -5 12 0 14 2 19 5 13 2 -7 2 -19 0 -25z
m12250 -45 c-3 -10 -5 -4 -5 12 0 17 2 24 5 18 2 -7 2 -21 0 -30z m-12260
-135 c-3 -7 -5 -2 -5 12 0 14 2 19 5 13 2 -7 2 -19 0 -25z m12250 -45 c-3 -10
-5 -4 -5 12 0 17 2 24 5 18 2 -7 2 -21 0 -30z m-12260 -130 c-3 -10 -5 -4 -5
12 0 17 2 24 5 18 2 -7 2 -21 0 -30z m12250 -45 c-3 -7 -5 -2 -5 12 0 14 2 19
5 13 2 -7 2 -19 0 -25z m-12260 -130 c-3 -7 -5 -2 -5 12 0 14 2 19 5 13 2 -7
2 -19 0 -25z m12250 -45 c-3 -10 -5 -4 -5 12 0 17 2 24 5 18 2 -7 2 -21 0 -30z
m-12260 -135 c-3 -7 -5 -2 -5 12 0 14 2 19 5 13 2 -7 2 -19 0 -25z m12250 -45
c-3 -10 -5 -4 -5 12 0 17 2 24 5 18 2 -7 2 -21 0 -30z m-12260 -130 c-3 -10
-5 -4 -5 12 0 17 2 24 5 18 2 -7 2 -21 0 -30z m53019 -1268 c255 -698 520
-1425 590 -1615 167 -458 229 -582 363 -732 l51 -56 -47 -10 c-187 -40 -1855
-353 -1858 -350 -3 2 14 47 38 99 l42 94 -1 140 0 140 -106 280 c-100 264
-107 280 -129 277 -13 -2 -388 -73 -832 -158 -445 -85 -812 -154 -816 -154
-13 0 -330 -673 -346 -735 -8 -33 -15 -102 -15 -157 0 -88 3 -105 30 -165 17
-36 29 -67 28 -68 -7 -4 -1063 -202 -1066 -200 -2 2 34 59 81 127 111 162 222
347 296 495 71 142 1641 3471 1648 3493 2 9 -28 57 -71 110 -61 76 -72 96 -59
99 187 40 1666 319 1687 318 l29 -2 463 -1270z m-40769 1223 c-3 -7 -5 -2 -5
12 0 14 2 19 5 13 2 -7 2 -19 0 -25z m-12260 -130 c-3 -7 -5 -2 -5 12 0 14 2
19 5 13 2 -7 2 -19 0 -25z m12250 -45 c-3 -10 -5 -4 -5 12 0 17 2 24 5 18 2
-7 2 -21 0 -30z m-12260 -135 c-3 -7 -5 -2 -5 12 0 14 2 19 5 13 2 -7 2 -19 0
-25z m12250 -125 c-3 -10 -5 -2 -5 17 0 19 2 27 5 18 2 -10 2 -26 0 -35z
m-12260 -50 c-3 -10 -5 -4 -5 12 0 17 2 24 5 18 2 -7 2 -21 0 -30z m49087
-170 c-15 -27 -31 -52 -35 -58 -16 -23 -58 -139 -73 -202 -25 -110 -40 -345
-137 -2078 -50 -902 -93 -1642 -95 -1644 -4 -5 -1885 -363 -1888 -359 -2 2
-315 679 -696 1506 -381 826 -697 1502 -702 1502 -4 0 -8 -10 -8 -23 0 -13
-32 -597 -71 -1298 -42 -751 -72 -1366 -73 -1499 -1 -251 5 -289 70 -407 18
-35 30 -63 26 -63 -4 0 -207 -38 -452 -85 -245 -47 -448 -85 -452 -85 -4 0 10
28 32 63 74 118 111 249 130 467 24 274 161 2841 161 3030 1 229 -5 263 -65
376 -19 37 -35 69 -33 70 1 1 454 88 1007 193 553 106 1012 194 1021 197 12 3
160 -311 694 -1473 373 -813 682 -1482 686 -1487 5 -5 11 -7 15 -3 3 3 39 583
80 1289 73 1281 86 1639 63 1746 -5 28 -28 84 -49 126 -21 42 -38 76 -37 76
40 10 869 168 885 169 l23 1 -27 -47z m-49097 -5 c-3 -7 -5 -2 -5 12 0 14 2
19 5 13 2 -7 2 -19 0 -25z m12260 -105 c-2 -16 -4 -5 -4 22 0 28 2 40 4 28 2
-13 2 -35 0 -50z m-12270 -75 c-3 -7 -5 -2 -5 12 0 14 2 19 5 13 2 -7 2 -19 0
-25z m-10 -175 c-3 -10 -5 -4 -5 12 0 17 2 24 5 18 2 -7 2 -21 0 -30z m-10
-175 c-3 -7 -5 -2 -5 12 0 14 2 19 5 13 2 -7 2 -19 0 -25z m12280 -405 c-1
-65 -3 -14 -3 112 0 127 2 180 3 118 2 -62 2 -165 0 -230z m-12290 225 c-3 -7
-5 -2 -5 12 0 14 2 19 5 13 2 -7 2 -19 0 -25z m-10 -175 c-3 -10 -5 -4 -5 12
0 17 2 24 5 18 2 -7 2 -21 0 -30z m44374 -42 c-48 -84 -86 -186 -100 -267 -20
-113 -31 -287 -127 -1982 -52 -939 -97 -1708 -98 -1709 -5 -5 -1881 -361
-1886 -358 -3 2 -318 681 -700 1509 -382 828 -698 1502 -701 1498 -5 -6 -134
-2307 -155 -2772 -4 -77 -1 -178 5 -235 9 -86 17 -113 55 -190 25 -49 44 -90
43 -91 -1 -1 -198 -38 -437 -83 -239 -46 -445 -85 -458 -88 -20 -5 -18 1 23
67 71 116 103 231 125 447 20 206 161 2824 163 3033 2 241 -5 280 -69 398 -18
34 -33 62 -31 62 1 0 461 88 1022 195 561 107 1023 191 1026 187 3 -4 312
-672 685 -1484 373 -813 681 -1478 685 -1478 4 0 10 19 13 43 14 110 148 2576
149 2752 2 224 -6 268 -69 383 -18 34 -33 62 -31 63 10 4 903 175 905 173 2
-1 -15 -34 -37 -73z m-44384 -133 c-3 -7 -5 -2 -5 12 0 14 2 19 5 13 2 -7 2
-19 0 -25z m-10 -180 c-3 -7 -5 -2 -5 12 0 14 2 19 5 13 2 -7 2 -19 0 -25z
m-10 -175 c-3 -10 -5 -4 -5 12 0 17 2 24 5 18 2 -7 2 -21 0 -30z m12340 -110
c-2 -16 -4 -5 -4 22 0 28 2 40 4 28 2 -13 2 -35 0 -50z m-12350 -65 c-3 -7 -5
-2 -5 12 0 14 2 19 5 13 2 -7 2 -19 0 -25z m-10 -180 c-3 -7 -5 -2 -5 12 0 14
2 19 5 13 2 -7 2 -19 0 -25z m12370 -25 c-3 -10 -5 -4 -5 12 0 17 2 24 5 18 2
-7 2 -21 0 -30z m-12380 -160 c-3 -10 -5 -4 -5 12 0 17 2 24 5 18 2 -7 2 -21
0 -30z m12390 -35 c-3 -7 -5 -2 -5 12 0 14 2 19 5 13 2 -7 2 -19 0 -25z
m17340 -24 c-3 -3 -12 -4 -19 -1 -8 3 -5 6 6 6 11 1 17 -2 13 -5z m9174 -1634
c324 -888 607 -1652 629 -1698 48 -100 114 -205 188 -295 30 -37 53 -69 51
-71 -2 -2 -422 -83 -934 -180 -511 -98 -940 -180 -952 -183 -21 -5 -20 2 24
93 45 95 47 104 51 205 2 58 -1 129 -7 157 -9 42 -196 566 -207 581 -4 5
-1642 -307 -1667 -317 -17 -7 -307 -597 -342 -697 -11 -32 -20 -92 -23 -167
-4 -115 -4 -118 27 -184 17 -37 30 -69 28 -71 -6 -5 -1050 -204 -1059 -201 -4
2 22 46 58 98 105 151 219 340 293 483 118 226 1673 3537 1668 3550 -2 6 -35
49 -72 95 -37 46 -64 86 -60 90 8 8 1684 331 1703 329 8 -1 243 -631 603
-1617z m-38914 1493 c-3 -10 -5 -4 -5 12 0 17 2 24 5 18 2 -7 2 -21 0 -30z
m12410 5 c-3 -7 -5 -2 -5 12 0 14 2 19 5 13 2 -7 2 -19 0 -25z m17206 -90 c-5
-7 -177 -268 -382 -580 -205 -312 -380 -569 -389 -572 -60 -16 -534 -98 -539
-93 -5 6 284 1036 297 1058 5 7 949 193 1009 198 9 1 10 -3 4 -11z m-17196
-50 c-3 -8 -6 -5 -6 6 -1 11 2 17 5 13 3 -3 4 -12 1 -19z m-12430 -50 c-3 -7
-5 -2 -5 12 0 14 2 19 5 13 2 -7 2 -19 0 -25z m12440 -80 c-3 -7 -5 -2 -5 12
0 14 2 19 5 13 2 -7 2 -19 0 -25z m-12450 -90 c-3 -7 -5 -2 -5 12 0 14 2 19 5
13 2 -7 2 -19 0 -25z m12470 -120 c-3 -8 -6 -5 -6 6 -1 11 2 17 5 13 3 -3 4
-12 1 -19z m-12480 -30 c-3 -8 -6 -5 -6 6 -1 11 2 17 5 13 3 -3 4 -12 1 -19z
m-10 -150 c-3 -7 -5 -2 -5 12 0 14 2 19 5 13 2 -7 2 -19 0 -25z m34583 -25
c253 -51 374 -243 387 -608 5 -150 -26 -781 -48 -970 -29 -247 -102 -454 -213
-601 -124 -166 -379 -314 -659 -384 -49 -12 -440 -89 -869 -170 -429 -82 -782
-151 -784 -153 -2 -2 -15 -192 -30 -423 -34 -550 -28 -705 36 -894 15 -47 27
-85 27 -86 -1 -1 -373 -72 -827 -158 -454 -87 -835 -160 -847 -163 -23 -5 -22
-5 6 58 56 125 99 298 116 474 3 33 42 699 86 1480 98 1731 98 1718 3 1913
-20 41 -34 75 -32 76 2 2 2027 389 2972 568 362 68 504 77 676 41z m-34593
-115 c-3 -7 -5 -2 -5 12 0 14 2 19 5 13 2 -7 2 -19 0 -25z m-10 -120 c-3 -8
-6 -5 -6 6 -1 11 2 17 5 13 3 -3 4 -12 1 -19z m-10 -120 c-3 -8 -6 -5 -6 6 -1
11 2 17 5 13 3 -3 4 -12 1 -19z m-20 -230 c-3 -8 -6 -5 -6 6 -1 11 2 17 5 13
3 -3 4 -12 1 -19z m-10 -100 c-3 -8 -6 -5 -6 6 -1 11 2 17 5 13 3 -3 4 -12 1
-19z m30604 -378 c20 -201 35 -366 34 -368 -2 -2 -59 2 -127 9 -133 12 -260 7
-410 -17 -105 -17 -1302 -244 -1305 -248 -5 -4 -54 -929 -50 -932 5 -6 1129
211 1224 235 118 30 210 65 351 132 98 46 122 54 122 41 0 -41 -41 -771 -46
-808 l-5 -41 -193 5 c-121 3 -225 0 -277 -7 -131 -18 -1203 -223 -1212 -231
-9 -8 -72 -1059 -64 -1066 6 -6 1290 238 1425 271 120 29 257 79 399 146 57
26 103 44 103 41 0 -21 -172 -778 -178 -783 -7 -7 -3354 -648 -3360 -644 -1 1
16 47 37 101 45 112 75 229 91 354 18 143 171 2894 171 3075 1 191 -10 273
-50 393 -15 45 -27 82 -27 83 6 4 3277 627 3291 626 19 -2 22 -23 56 -367z
m-30614 278 c-3 -8 -6 -5 -6 6 -1 11 2 17 5 13 3 -3 4 -12 1 -19z m56948 -224
c331 -87 562 -153 775 -224 210 -70 432 -151 427 -156 -2 -2 -77 21 -168 52
-255 86 -497 155 -979 280 -245 64 -463 120 -485 127 l-40 11 35 6 c38 6 59 2
435 -96z m1275 -404 c8 -5 11 -10 5 -10 -5 0 -17 5 -25 10 -8 5 -10 10 -5 10
6 0 17 -5 25 -10z m-31878 -202 c96 -32 164 -75 223 -140 132 -147 187 -399
165 -766 -5 -92 -30 -529 -55 -972 -24 -443 -49 -857 -55 -920 -35 -360 -136
-632 -304 -817 -134 -149 -375 -279 -648 -353 -86 -23 -3127 -610 -3160 -610
-4 0 6 30 21 68 44 103 80 227 96 332 8 52 53 770 100 1595 100 1732 100 1708
28 1928 -14 43 -23 80 -22 82 5 4 3034 582 3119 594 36 5 144 8 240 7 156 -3
183 -6 252 -28z m-4779 -358 c-17 -87 -21 -260 -10 -375 l8 -80 -467 -520
c-256 -286 -485 -542 -509 -568 l-42 -48 -58 78 c-32 42 -83 102 -112 132 -29
30 -53 57 -53 60 0 4 33 42 73 86 39 45 321 359 626 698 304 340 554 617 556
615 2 -2 -4 -37 -12 -78z m-8492 -2112 c-62 -136 -97 -284 -120 -498 -13 -115
-163 -2756 -159 -2786 3 -20 22 -17 648 103 355 67 686 134 735 148 183 52
332 114 423 177 36 25 42 26 41 11 0 -10 -37 -193 -83 -407 l-82 -390 -1643
-313 c-904 -173 -1645 -312 -1648 -310 -2 2 10 36 26 74 45 105 78 230 96 355
20 148 175 2896 175 3104 0 179 -16 294 -54 401 -14 37 -24 68 -23 69 3 2
1668 322 1684 323 7 1 1 -24 -16 -61z m40608 -8 c440 -41 644 -62 781 -81 216
-30 847 -128 1810 -280 1224 -193 1811 -284 2355 -364 209 -31 426 -67 482
-80 327 -78 631 -255 864 -503 41 -43 209 -245 375 -448 165 -203 462 -567
659 -809 1198 -1469 1667 -2085 4791 -6300 473 -638 931 -1255 1018 -1372 151
-204 220 -323 199 -344 -5 -5 -483 59 -1063 141 -1878 266 -3082 424 -4100
540 -245 28 -478 57 -518 65 -108 22 -218 61 -298 106 -149 85 -195 134 -603
644 -1162 1452 -2561 3198 -3662 4570 -2328 2899 -2905 3620 -2995 3740 -74
98 -538 754 -567 802 -11 18 -25 19 472 -27z m-34145 -127 c-2 -16 -18 -289
-35 -608 -17 -319 -33 -581 -34 -582 -5 -7 -2435 -466 -2441 -461 -7 8 60
1205 68 1213 7 7 2383 463 2419 464 22 1 25 -3 23 -26z m-10097 -515 c-71
-161 -109 -304 -132 -489 -9 -74 -51 -747 -93 -1496 -61 -1080 -75 -1363 -64
-1363 31 0 1276 242 1357 264 185 50 338 113 433 178 24 17 45 28 48 26 5 -6
-160 -796 -169 -804 -3 -4 -734 -145 -1624 -315 -890 -170 -1630 -311 -1645
-315 l-27 -5 28 63 c56 124 99 297 116 473 3 33 42 699 86 1480 88 1545 91
1668 50 1830 -11 44 -27 97 -36 119 -9 21 -14 40 -12 43 5 5 1641 320 1671
322 11 1 16 -4 13 -11z m-2107 -394 c0 -3 -8 -18 -19 -32 -27 -39 -76 -140
-95 -195 -43 -129 -46 -165 -126 -1562 -65 -1150 -64 -1139 -86 -1305 -85
-648 -339 -948 -929 -1098 -145 -37 -2131 -417 -2265 -433 -172 -21 -370 5
-487 65 -191 96 -301 284 -344 586 -22 156 -12 448 50 1525 33 582 61 1111 61
1175 0 142 -21 283 -55 379 -15 40 -25 74 -23 76 4 4 1682 323 1685 321 2 -1
-13 -42 -33 -89 -46 -115 -78 -243 -98 -396 -17 -132 -146 -2343 -147 -2522
-1 -161 27 -232 106 -273 79 -41 163 -32 835 98 816 157 855 167 932 234 54
48 76 112 89 254 24 280 139 2419 139 2586 0 210 -7 252 -60 358 -22 43 -39
79 -37 80 3 2 878 171 895 173 6 0 12 -2 12 -5z m-4617 -1056 c37 -388 50
-558 45 -563 -3 -3 -69 0 -147 6 -108 9 -170 9 -259 1 -97 -10 -1417 -254
-1427 -264 -3 -3 -54 -932 -51 -934 2 -3 1012 191 1131 217 153 32 277 75 424
145 74 35 136 62 139 59 3 -3 -5 -199 -18 -435 l-24 -430 -75 7 c-122 13 -347
7 -456 -11 -92 -15 -1158 -217 -1162 -220 -5 -4 -63 -1114 -63 -1216 0 -158
15 -283 47 -385 13 -44 25 -89 26 -99 2 -17 -69 -32 -823 -177 -454 -87 -833
-158 -842 -159 -15 0 -14 6 6 53 41 91 84 239 100 344 16 100 28 302 137 2218
58 1030 59 1086 4 1270 -15 50 -29 97 -32 105 -3 13 263 66 1624 327 895 171
1640 312 1654 312 l26 1 16 -172z m34760 -102 c1959 -9 2922 -17 2929 -24 5
-5 173 -302 373 -658 l364 -649 -92 -3 c-88 -2 -7388 166 -7393 171 -2 2 102
1169 105 1175 2 4 678 2 3714 -12z m-9963 -164 c0 -4 -7 -61 -15 -127 -174
-1422 -446 -4110 -600 -5945 -253 -3013 -431 -6288 -481 -8852 l-7 -348 -1466
-2 c-806 -2 -1677 -3 -1936 -3 l-470 0 -62 29 c-34 15 -70 37 -79 47 -17 19
19 19 1743 19 l1760 0 7 268 c3 147 11 384 16 527 6 143 17 469 25 725 110
3411 378 7193 790 11135 83 791 253 2317 271 2426 l5 36 97 7 c53 4 160 20
237 35 162 33 165 34 165 23z m-581 -58 c2 -2 -1 -9 -6 -16 -53 -67 -6848
-9032 -7027 -9270 -130 -175 -241 -320 -245 -323 -13 -7 -34 114 -23 128 5 7
1612 2127 3572 4712 1960 2585 3578 4719 3596 4741 32 40 35 41 81 36 26 -2
50 -6 52 -8z m-9505 -506 c-4 -6 -141 -158 -304 -337 -1184 -1302 -2597 -2888
-4151 -4656 -458 -520 -584 -655 -704 -746 -231 -177 -500 -300 -795 -363 -63
-13 -223 -41 -355 -61 -720 -108 -1532 -262 -1830 -345 -251 -71 -352 -155
-396 -330 -11 -42 -13 -110 -9 -290 13 -657 4 -871 -51 -1140 -137 -672 -508
-1217 -1093 -1609 -695 -465 -1392 -595 -2037 -378 -86 29 -258 101 -194 81
213 -65 391 -89 615 -81 294 11 561 84 870 238 449 225 797 527 1034 899 123
193 239 483 290 726 57 272 60 317 61 889 1 510 2 533 22 606 68 243 195 360
493 457 276 90 1019 235 1885 367 343 53 435 72 594 127 229 79 424 197 598
361 42 39 254 275 472 522 1585 1804 2691 3045 4035 4530 214 237 401 442 415
458 26 26 31 27 156 32 81 3 174 14 245 29 139 29 143 29 134 14z m22088
-2113 c95 -14 292 -41 438 -61 325 -43 418 -64 529 -120 103 -51 192 -137 238
-229 56 -112 85 -100 -250 -97 -821 10 -1454 -108 -2060 -383 -123 -56 -129
-61 -152 -104 -78 -156 -179 -434 -235 -648 -75 -287 -118 -546 -194 -1153
-30 -239 -71 -538 -90 -665 -38 -248 -59 -413 -106 -855 -43 -390 -56 -472
-85 -529 -26 -53 -108 -132 -166 -162 l-38 -19 5 83 c3 45 20 523 39 1062 41
1151 58 1599 85 2205 34 758 37 798 65 895 61 210 192 386 379 510 185 121
352 177 661 220 97 13 656 69 742 74 11 0 99 -10 195 -24z m-37181 -1270 l77
-79 -131 -136 c-466 -478 -884 -1083 -1187 -1714 -357 -743 -549 -1427 -637
-2266 -25 -242 -25 -994 0 -1240 42 -411 99 -734 192 -1095 241 -939 664
-1770 1271 -2500 137 -165 521 -549 683 -685 611 -507 1308 -877 2061 -1095
97 -28 115 -36 112 -52 -5 -29 -49 -92 -157 -225 -56 -68 -145 -181 -200 -253
-217 -286 -403 -486 -546 -588 -92 -65 -238 -132 -340 -157 -186 -44 -359 -47
-814 -14 -110 7 -313 14 -451 14 -365 0 -6318 -115 -6469 -125 -334 -23 -460
-98 -516 -310 -17 -67 -22 -128 -30 -374 -14 -428 -6 -3759 10 -3833 20 -99
51 -169 99 -220 86 -92 194 -123 547 -158 239 -24 322 -40 382 -75 86 -51 113
-164 113 -475 0 -207 16 -441 36 -539 39 -194 131 -298 314 -356 110 -34 195
-48 635 -105 869 -113 2666 -357 2672 -364 8 -8 -995 -4690 -1029 -4801 -24
-82 -31 -124 -35 -236 -7 -157 4 -218 48 -279 54 -75 145 -105 359 -120 241
-17 3333 -100 3723 -100 159 0 277 -4 277 -9 0 -22 54 -375 86 -566 139 -820
344 -1546 623 -2205 87 -206 296 -621 390 -778 341 -566 800 -1076 1294 -1436
503 -366 1111 -625 1762 -751 383 -74 675 -97 1218 -96 1220 2 2138 109 2812
329 452 148 824 356 1180 661 132 113 546 522 543 536 -2 7 55 86 126 176 543
691 943 1413 1217 2199 32 91 58 160 58 154 1 -21 -130 -414 -189 -569 -281
-734 -681 -1435 -1180 -2065 -37 -47 -77 -105 -90 -130 -42 -85 -506 -536
-748 -729 -676 -535 -1576 -809 -2967 -901 -476 -31 -1322 -42 -1600 -21 -835
65 -1530 269 -2165 634 -536 308 -1033 757 -1442 1302 -208 276 -357 523 -533
880 -385 781 -660 1687 -829 2730 -20 121 -39 235 -42 253 l-5 32 -172 0
c-157 0 -1160 25 -2567 65 -1191 34 -1222 35 -1358 81 -231 77 -342 248 -342
529 1 136 14 227 54 375 19 69 48 193 65 275 17 83 227 1067 466 2188 239
1120 435 2041 435 2046 0 5 -8 12 -17 16 -17 6 -1155 162 -1938 265 -209 28
-499 66 -645 86 -363 48 -492 79 -645 158 -141 72 -235 185 -289 346 -44 133
-56 237 -66 555 -13 393 -16 424 -43 434 -12 5 -119 18 -237 30 -240 24 -379
49 -477 86 -235 89 -343 231 -390 513 -13 85 -16 287 -20 1582 -5 1754 5 2508
35 2645 84 385 297 521 847 541 147 5 2236 47 5065 100 l1435 28 359 -24 c589
-38 753 -19 952 111 147 96 303 265 583 632 l112 147 -26 10 c-14 6 -28 10
-31 10 -12 0 -315 116 -369 140 -33 16 -112 52 -175 80 -922 412 -1755 1102
-2369 1961 -413 577 -748 1274 -951 1979 -190 661 -280 1292 -280 1975 0 533
49 985 167 1530 159 739 504 1555 944 2230 l78 120 82 23 c168 46 333 141 471
271 202 189 337 457 367 730 l9 84 74 68 73 68 35 -42 c19 -23 69 -78 111
-122z m3521 -237 c-293 -435 -535 -915 -728 -1443 -40 -110 -73 -194 -74 -187
0 22 146 451 204 599 128 324 281 639 452 932 l87 149 46 10 c25 5 50 10 54
11 4 0 -14 -32 -41 -71z m-815 -1700 c-3 -8 -6 -5 -6 6 -1 11 2 17 5 13 3 -3
4 -12 1 -19z m38105 -777 c266 -53 463 -150 632 -311 187 -179 301 -386 402
-730 55 -188 112 -322 291 -682 89 -181 160 -328 157 -328 -3 0 -242 148 -532
328 -544 339 -603 375 -957 582 -260 152 -314 188 -391 262 -143 136 -155 271
-67 743 17 90 32 145 42 153 24 21 287 10 423 -17z m-38431 -776 c-57 -207
-157 -355 -326 -483 -130 -98 -242 -224 -307 -346 -31 -58 -37 -65 -32 -36 12
67 57 195 92 265 79 157 181 277 362 422 113 91 170 153 203 220 11 24 23 41
25 39 2 -3 -6 -39 -17 -81z m13200 -4588 c127 -194 237 -390 365 -651 182
-372 288 -633 589 -1451 156 -424 297 -787 389 -999 31 -72 56 -134 56 -138 0
-4 -905 -8 -2011 -8 -1106 0 -2009 4 -2007 8 6 16 2522 3372 2528 3372 3 0 44
-60 91 -133z m38574 -2932 c1422 -449 1745 -552 2760 -880 873 -283 1293 -416
1800 -574 438 -135 543 -173 685 -246 199 -103 356 -222 525 -396 130 -135
203 -230 346 -457 138 -219 243 -365 462 -646 100 -127 217 -278 260 -335 l80
-103 -44 7 c-115 18 -279 55 -325 72 -54 21 -541 272 -1594 823 -1956 1023
-2865 1482 -3400 1718 -264 116 -452 194 -1075 447 -280 114 -651 267 -823
341 -219 94 -361 148 -469 180 -272 78 -378 131 -457 225 -38 45 -94 163 -102
216 l-7 43 29 -10 c16 -5 623 -196 1349 -425z m11196 85 c1833 -46 3332 -169
4924 -405 1381 -205 2548 -455 3615 -776 247 -75 740 -237 945 -312 l90 -32
36 -63 c42 -71 80 -181 103 -294 24 -118 22 -1283 -4 -2133 -51 -1674 -100
-2717 -135 -2903 -60 -312 -206 -449 -560 -522 -221 -47 -703 -107 -1050 -132
-247 -18 -1669 -18 -2005 0 -880 47 -1345 97 -2220 242 -261 44 -758 124
-1105 180 -1186 190 -2110 349 -2415 416 -460 102 -874 328 -1132 619 -146
165 -213 277 -383 639 -73 154 -237 499 -365 766 -730 1522 -841 1798 -1280
3180 -104 327 -222 693 -263 812 l-75 217 32 7 c55 12 162 72 226 126 171 145
254 200 388 257 133 56 346 102 527 114 125 8 1745 6 2106 -3z m-10528 -935
c76 -30 163 -71 194 -91 79 -51 149 -127 189 -209 33 -68 44 -104 99 -350 51
-223 170 -552 289 -800 335 -695 866 -1146 1551 -1319 361 -91 1285 -269 2690
-516 847 -149 1367 -244 1560 -285 237 -50 627 -135 648 -141 15 -5 17 -15 15
-71 l-3 -66 -107 -38 c-59 -21 -129 -41 -155 -44 -27 -4 -138 3 -248 14 -110
11 -573 54 -1030 96 -1520 138 -2109 204 -2870 321 -416 63 -602 109 -860 211
-834 328 -1572 1021 -2016 1891 -247 486 -399 1025 -426 1515 l-6 119 174 -91
c96 -49 236 -115 312 -146z m-53795 -5883 c-15 -38 -1854 -3621 -1859 -3622
-11 0 -39 242 -51 428 -7 130 -7 230 1 377 27 465 99 852 306 1640 52 198 112
430 134 515 41 162 124 532 136 610 4 25 9 48 12 53 6 10 1325 9 1321 -1z
m4282 -528 c333 -51 647 -190 1006 -446 533 -380 909 -797 1149 -1276 59 -117
146 -316 145 -331 -1 -7 -10 3 -290 320 -506 574 -748 778 -1155 975 -781 378
-1620 267 -2339 -310 -193 -155 -448 -427 -638 -681 -292 -390 -511 -819 -701
-1372 -42 -122 -93 -259 -113 -305 -40 -89 -94 -191 -100 -185 -5 5 52 339 91
532 221 1089 579 1824 1161 2385 575 553 1174 786 1784 694z m40190 -209 c415
-60 796 -193 1185 -413 144 -81 477 -308 615 -418 161 -129 420 -380 533 -518
104 -124 196 -253 274 -381 66 -107 199 -372 192 -380 -3 -2 -47 43 -99 102
-365 408 -879 808 -1447 1124 -384 215 -736 309 -1152 309 -159 0 -273 -11
-641 -61 -579 -78 -787 -127 -1029 -240 -214 -101 -323 -193 -703 -596 -590
-625 -922 -1075 -1179 -1595 -115 -235 -155 -338 -345 -907 -88 -261 -160
-467 -162 -458 -5 24 34 329 68 537 213 1292 678 2258 1451 3016 181 177 320
290 519 422 376 251 812 414 1230 461 52 6 111 13 130 15 74 9 460 -4 560 -19z
m-21600 -1245 l0 -1140 -82 0 c-46 0 -2859 27 -6253 60 -3393 33 -6211 60
-6261 60 l-91 0 -188 468 c-104 257 -298 738 -432 1070 -133 332 -243 607
-243 613 0 5 2556 9 6775 9 l6775 0 0 -1140z m-18298 -1004 c206 -53 380 -158
563 -341 189 -188 304 -355 454 -660 225 -456 354 -882 413 -1365 23 -190 11
-1245 -16 -1448 -80 -599 -277 -1092 -642 -1613 -503 -716 -1211 -900 -1819
-471 -205 145 -408 390 -540 652 -83 164 -271 616 -324 778 -93 281 -161 584
-198 882 -28 224 -25 747 5 966 68 501 193 926 412 1404 160 351 332 604 559
830 228 225 461 357 716 405 116 21 293 14 417 -19z m40153 -326 c663 -74
1307 -535 1809 -1295 325 -492 496 -957 568 -1550 19 -156 16 -601 -6 -775
-12 -100 -16 -174 -12 -240 9 -122 -8 -394 -34 -566 -90 -585 -341 -1132 -761
-1654 -221 -274 -384 -429 -613 -581 -371 -247 -820 -366 -1237 -331 -270 23
-481 82 -724 202 -384 189 -656 442 -973 908 -330 485 -498 899 -542 1336 -6
60 -22 159 -35 220 -67 313 -95 560 -102 893 -8 357 11 577 78 905 138 683
497 1355 999 1872 473 486 1032 718 1585 656z m23600 -810 c2075 -31 3984
-139 6425 -363 l135 -12 3 -67 3 -67 -533 0 c-657 1 -782 -10 -924 -77 -148
-70 -248 -299 -184 -424 30 -59 110 -141 167 -172 68 -37 223 -73 488 -113
390 -60 568 -100 750 -171 154 -60 155 -61 34 -68 -57 -3 -383 -13 -724 -21
-341 -9 -793 -20 -1005 -25 -490 -12 -954 -12 -1140 0 -80 5 -219 14 -310 19
-96 6 -1731 15 -3918 22 -3123 10 -4071 10 -5645 -2 -2493 -18 -3115 -18
-3457 5 -1223 79 -2389 266 -4028 646 l-383 89 -149 78 c-82 43 -150 80 -150
83 0 3 42 4 92 2 51 -1 980 -25 2063 -52 5448 -138 6683 -187 8120 -321 590
-56 947 -51 1222 16 151 36 603 201 603 220 0 24 -93 195 -130 237 -81 93
-199 153 -353 178 -61 10 -1778 80 -2452 99 -410 12 -561 20 -589 30 -13 5 7
10 60 14 43 4 207 18 364 32 1737 150 3649 214 5545 185z m8371 -2654 c-422
-1264 -1271 -2016 -2576 -2281 -486 -99 -1019 -159 -1725 -196 -131 -7 -539
-11 -1007 -10 l-787 1 -63 -82 c-204 -269 -410 -501 -702 -793 -325 -324 -577
-544 -914 -797 -1177 -885 -2496 -1409 -3907 -1552 -480 -49 -1075 -49 -1565
0 -1247 124 -2338 552 -3244 1272 -550 437 -1061 1034 -1371 1601 l-50 91
-3455 0 -3456 0 -543 -1047 c-299 -577 -552 -1058 -562 -1071 -26 -34 -151
-137 -331 -272 -1076 -813 -2573 -1357 -4148 -1509 -656 -64 -1332 -60 -1955
10 -1368 153 -2610 623 -3590 1359 -935 701 -1463 1470 -1820 2653 l-26 87
-3018 0 -3018 0 -26 -39 c-42 -63 -223 -287 -352 -436 -500 -575 -1116 -1087
-1760 -1465 -301 -176 -738 -376 -1066 -488 -588 -201 -1147 -293 -1769 -293
-419 0 -724 36 -1110 131 -714 176 -1380 530 -2029 1077 -159 134 -531 507
-683 685 -345 404 -645 840 -821 1193 -47 94 -92 177 -101 184 -18 16 -70 10
-235 -25 -62 -13 -168 -29 -234 -35 -130 -11 -133 -11 -1172 41 -324 16 -716
34 -870 40 -457 17 -2532 74 -3845 105 -355 8 -825 20 -1045 26 -220 6 -1237
15 -2260 21 -1023 6 -1922 11 -1997 12 -133 1 -138 2 -131 21 3 11 28 94 54
185 l47 165 219 -1 c3156 -18 4006 -24 4343 -33 223 -6 691 -18 1040 -26 1615
-39 3766 -99 4115 -115 121 -6 488 -24 815 -41 327 -17 685 -31 795 -32 189 0
209 2 360 33 108 23 189 34 250 34 81 1 95 -2 137 -26 63 -38 94 -83 200 -293
239 -474 655 -1032 1108 -1485 296 -297 531 -491 850 -705 360 -240 696 -409
1070 -537 1004 -344 2146 -305 3258 111 569 213 1205 586 1727 1016 444 365
940 889 1229 1298 l48 67 3166 -2 3165 -3 49 -170 c204 -714 488 -1291 874
-1775 125 -157 456 -492 626 -633 715 -594 1554 -1024 2514 -1286 1843 -503
4018 -336 5815 447 583 255 1156 602 1569 950 l65 55 571 1101 572 1101 3599
3 3599 2 43 -87 c111 -226 301 -528 471 -748 329 -426 724 -802 1170 -1114
829 -581 1786 -915 2945 -1026 227 -22 873 -31 1111 -16 1140 73 2168 374
3162 923 491 271 943 588 1427 1002 185 158 678 652 839 841 136 159 304 371
352 444 l29 44 595 -5 c1359 -12 2117 36 2905 183 980 183 1679 630 2141 1370
87 140 232 435 294 601 30 80 56 142 58 138 2 -5 -22 -83 -52 -174z m-76146
-8146 c8 -5 11 -10 5 -10 -5 0 -17 5 -25 10 -8 5 -10 10 -5 10 6 0 17 -5 25
-10z m68980 -10 c-8 -5 -19 -10 -25 -10 -5 0 -3 5 5 10 8 5 20 10 25 10 6 0 3
-5 -5 -10z m-62345 -684 c2222 -607 6526 -1783 22782 -6225 2779 -760 5062
-1381 5074 -1381 12 0 629 166 1373 369 743 203 6672 1824 13176 3601 6504
1777 12718 3475 13810 3773 l1985 542 2055 -5 2054 -5 -129 -61 c-286 -135
-15203 -7163 -17622 -8303 l-2592 -1221 -14109 0 -14109 0 -784 369 c-664 312
-7740 3646 -17198 8102 l-2364 1114 2049 5 c1127 3 2056 4 2064 3 8 -1 1127
-306 2485 -677z m14655 -9336 c8 -5 11 -10 5 -10 -5 0 -17 5 -25 10 -8 5 -10
10 -5 10 6 0 17 -5 25 -10z m26345 -34 c-105 -49 -3499 -1649 -8590 -4049
-2497 -1177 -4547 -2139 -4555 -2139 -8 1 -2071 970 -4585 2155 -2513 1184
-5477 2580 -6585 3103 l-2014 949 13189 5 c7255 3 13195 6 13200 7 6 1 -21
-13 -60 -31z"/>
<path d="M73567 66049 c-180 -397 -326 -724 -324 -726 4 -3 1110 207 1116 212
4 5 -448 1217 -458 1228 -4 4 -155 -317 -334 -714z"/>
<path d="M59178 63307 c-259 -573 -323 -723 -310 -725 20 -3 1089 202 1098
210 5 6 -441 1216 -455 1230 -3 4 -153 -318 -333 -715z"/>
<path d="M55295 63483 c-214 -42 -392 -79 -395 -84 -9 -13 -74 -1228 -67
-1236 8 -7 683 118 797 148 145 39 196 90 224 224 8 39 24 249 36 476 24 446
23 468 -30 521 -26 26 -34 28 -102 27 -46 -1 -215 -28 -463 -76z"/>
<path d="M47003 61901 c-222 -43 -405 -80 -407 -82 -4 -4 -157 -2672 -153
-2675 5 -5 823 156 865 170 107 36 142 80 168 209 17 90 138 2205 131 2302 -9
123 -40 156 -144 154 -32 0 -239 -36 -460 -78z"/>
<path d="M39145 44539 c-390 -522 -850 -1137 -1022 -1367 l-312 -417 1596 -3
c878 -1 1598 -1 1600 1 2 2 -24 73 -58 158 -71 178 -224 587 -264 704 -88 261
-302 811 -420 1085 -110 255 -356 733 -399 777 -8 8 -185 -221 -721 -938z"/>
<path d="M87770 41682 c0 -2 23 -88 51 -190 28 -103 56 -226 64 -274 31 -206
112 -255 460 -278 254 -17 600 -47 1165 -100 289 -27 638 -59 775 -70 558 -44
2426 -161 2605 -162 165 -1 242 29 280 107 18 38 21 59 19 142 l-3 98 113 198
c62 109 111 200 108 203 -3 3 -1246 77 -2764 164 -1517 87 -2784 161 -2815
163 -32 2 -58 1 -58 -1z"/>
<path d="M94670 41380 c-367 -78 -673 -345 -892 -777 -160 -314 -238 -648
-238 -1018 0 -811 400 -1588 1025 -1990 468 -301 922 -362 1310 -176 55 27
126 67 159 89 190 131 353 333 470 584 83 177 117 304 182 683 51 296 54 343
28 554 -119 985 -656 1751 -1403 2001 -211 71 -456 90 -641 50z m401 -325
c156 -27 316 -97 491 -214 190 -127 447 -366 550 -511 163 -229 250 -539 298
-1060 l12 -125 -37 -170 c-119 -551 -175 -717 -306 -911 -95 -142 -254 -274
-386 -324 -218 -81 -461 -68 -687 39 -280 131 -569 401 -756 706 -67 109 -164
319 -204 440 -82 252 -110 448 -103 715 8 310 61 533 189 800 228 477 544 684
939 615z"/>
<path d="M95099 40703 c-9 -68 -12 -169 -9 -328 3 -126 5 -340 5 -475 0 -226
-2 -251 -23 -325 -13 -44 -37 -109 -54 -143 -37 -75 -143 -192 -223 -248 l-57
-39 29 -7 c79 -19 944 -171 948 -166 6 6 -583 1807 -595 1821 -4 5 -13 -36
-21 -90z"/>
<path d="M96700 40865 c0 -3 58 -121 128 -263 109 -218 127 -262 121 -287 -27
-117 16 -217 114 -263 23 -11 74 -26 112 -35 110 -24 1964 -291 1971 -284 4 4
-7 149 -25 324 -17 175 -34 350 -37 390 -6 67 -8 72 -33 77 -27 6 -2334 346
-2345 346 -3 0 -6 -2 -6 -5z"/>
<path d="M88340 39785 c0 -3 43 -107 95 -231 88 -209 95 -230 95 -292 0 -49 5
-76 20 -99 34 -56 66 -65 255 -74 94 -4 438 -33 765 -64 1678 -158 3162 -285
3329 -285 75 0 137 24 155 59 11 21 13 74 9 258 l-6 232 -36 5 c-20 3 -1069
114 -2331 246 -1262 132 -2307 242 -2322 245 -16 2 -28 2 -28 0z"/>
<path d="M97226 38643 c-13 -148 -22 -175 -103 -298 -42 -64 -74 -117 -72
-119 7 -5 2098 -208 2108 -204 9 3 -139 482 -153 495 -4 4 -1726 202 -1767
203 -4 0 -10 -35 -13 -77z"/>
<path d="M89387 37687 c396 -329 598 -487 666 -523 115 -60 358 -102 842 -144
242 -21 1290 -120 3145 -295 553 -53 1091 -107 1195 -121 571 -74 793 -92
1670 -134 708 -33 1053 -41 1632 -38 l562 3 -104 142 c-58 78 -105 146 -105
151 0 5 43 28 95 52 53 24 98 47 100 51 8 11 -145 86 -210 103 -100 25 -126
28 -985 92 -303 22 -622 60 -820 96 -391 71 -567 35 -772 -161 l-88 -84 -117
-34 c-255 -74 -460 -103 -720 -103 -287 1 -505 41 -768 143 -200 77 -259 114
-473 299 -178 153 -298 225 -437 262 -35 10 -219 29 -440 46 -890 70 -2069
178 -3884 355 -85 8 -163 15 -174 15 -11 0 64 -69 190 -173z"/>
<path d="M29683 32170 c-325 -59 -570 -378 -783 -1020 -95 -285 -137 -520
-147 -810 -14 -455 79 -870 293 -1300 108 -218 168 -306 278 -415 100 -100
200 -160 312 -189 78 -20 212 -20 289 -1 316 82 597 407 751 870 82 248 104
405 111 785 9 475 -19 828 -86 1093 -121 479 -456 896 -782 975 -68 17 -177
22 -236 12z"/>
<path d="M70015 31620 c-371 -76 -693 -318 -906 -678 -212 -359 -346 -743
-404 -1163 -35 -252 -30 -703 11 -989 74 -508 339 -880 785 -1102 364 -181
770 -212 1127 -87 292 103 558 306 721 550 126 188 200 377 351 900 61 210
113 385 115 389 2 4 -9 51 -26 106 -16 54 -72 248 -124 429 -137 482 -205 679
-318 915 -193 404 -518 666 -911 735 -119 20 -307 18 -421 -5z"/>
</g>
</svg>
